<svg id="Ebene_1" data-name="Ebene 1" xmlns="http://www.w3.org/2000/svg" viewBox="0 0 120 120"><defs><style>.cls-1{fill:#dadada;}</style></defs><path class="cls-1" d="M99.22,80.82v8.32c0,6.52-15.77,11.81-33.87,11.81S31.49,95.66,31.49,89.14V80.82c8.19,5.88,23.72,7.64,33.86,7.64S91.05,86.69,99.22,80.82ZM65.35,69.27c-10.18,0-25.69-1.77-33.86-7.64v8.25c0,6.52,15.77,11.81,33.86,11.81S99.22,76.4,99.22,69.88V61.63C91,67.52,75.5,69.27,65.35,69.27Zm0-49.6c-18.09,0-33.86,5.29-33.86,11.82S47.26,43.3,65.35,43.3,99.22,38,99.22,31.49,83.45,19.67,65.35,19.67Zm0,30.4c-10.18,0-25.69-1.77-33.86-7.64v8.26c0,6.52,15.77,11.81,33.86,11.81s33.87-5.29,33.87-11.81V42.43C91,48.31,75.5,50.07,65.35,50.07Z"/></svg>