<svg id="Ebene_1" data-name="Ebene 1" xmlns="http://www.w3.org/2000/svg" xmlns:xlink="http://www.w3.org/1999/xlink" viewBox="0 0 120 120"><defs><style>.cls-1{fill:#dadada;}.cls-2{fill:url(#Degradado_sin_nombre_76);}</style><linearGradient id="Degradado_sin_nombre_76" x1="27.46" y1="82.12" x2="102.16" y2="82.12" gradientUnits="userSpaceOnUse"><stop offset="0" stop-color="#bf1818"/><stop offset="0.25" stop-color="#f5e71b"/><stop offset="0.5" stop-color="#89bd24"/><stop offset="0.75" stop-color="#6fc1aa"/><stop offset="1" stop-color="#273c90"/></linearGradient></defs><path class="cls-1" d="M55.63,54.85H74l4.79,15.36h6.8l-17-50.41H61.31L44.25,70.21h6.53Zm9-29.78H65c1.62,5.82,3.24,11.35,5.05,17l2.39,7.68H57.24l2.43-7.68C61.48,36.42,63.1,30.92,64.66,25.07Z"/><rect class="cls-2" x="27.46" y="74.59" width="74.71" height="15.07" rx="6.08"/><path class="cls-1" d="M96.71,89.81H32.91a6.2,6.2,0,0,1-6.19-6.2v-3a6.2,6.2,0,0,1,6.19-6.2h63.8a6.21,6.21,0,0,1,6.2,6.2v3A6.21,6.21,0,0,1,96.71,89.81Zm-63.8-14a4.81,4.81,0,0,0-4.8,4.81v3a4.81,4.81,0,0,0,4.8,4.81h63.8a4.81,4.81,0,0,0,4.8-4.81v-3a4.81,4.81,0,0,0-4.8-4.81Z"/></svg>