<svg id="Ebene_1" data-name="Ebene 1" xmlns="http://www.w3.org/2000/svg" viewBox="0 0 120 120"><defs><style>.cls-1{fill:#dadada;}</style></defs><path class="cls-1" d="M101.83,100.64,95.2,91.52A58.23,58.23,0,0,0,57.49,68.34V80.05a3.13,3.13,0,0,1-5,2.5L15,54.43a3,3,0,0,1-.62-.62A3.13,3.13,0,0,1,15,49.43l37.5-28.12a3.12,3.12,0,0,1,5,2.5V37.06a59.36,59.36,0,0,1,50,58.62V98.8a3.13,3.13,0,0,1-2.15,3.13,3.94,3.94,0,0,1-1,0A3.13,3.13,0,0,1,101.83,100.64ZM22.08,51.93,51.24,73.8v-9a3.16,3.16,0,0,1,3.44-3.12A64.6,64.6,0,0,1,100.39,87.9l.5.65A53.13,53.13,0,0,0,54,42.93a3.11,3.11,0,0,1-2.78-3.12V30.06Z"/></svg>