<svg id="Ebene_1" data-name="Ebene 1" xmlns="http://www.w3.org/2000/svg" viewBox="0 0 120 120"><defs><style>.cls-1{fill:#dadada;}</style></defs><path class="cls-1" d="M47.88,65.7,33,42.21h9L48.61,53c1.5,2.7,3.17,5.48,4.81,8.18h.4c1.48-2.7,3-5.48,4.44-8.18l6-10.78h8.67L58.06,66.57,74.12,91.34h-9L57.86,79.92c-1.71-3-3.5-6-5.34-8.82h-.41c-1.68,2.83-3.28,5.83-5,8.82L40.48,91.34H31.82Z"/><path class="cls-1" d="M80,60.52c12.5-12.46,19.57-19.94,19.57-26.71,0-4.74-2.58-8.11-7.89-8.11-3.48,0-6.47,2.2-8.84,5l-3.11-3c3.48-3.82,7.23-6.32,12.61-6.32,7.69,0,12.49,4.85,12.49,12.24,0,7.81-7.17,15.57-17,25.87,2.25-.18,4.84-.35,7-.35h12V63.7H80Z"/></svg>