<svg id="Ebene_1" data-name="Ebene 1" xmlns="http://www.w3.org/2000/svg" viewBox="0 0 120 120"><defs><style>.cls-1{fill:#ededed;}.cls-2{fill:#3f4a54;}.cls-3{fill:#dadada;stroke:#fff;stroke-miterlimit:10;}.cls-4{fill:#ed6e2f;}</style></defs><rect class="cls-1" x="27.09" y="19.32" width="74.82" height="81.98"/><path class="cls-2" d="M101.55,19.67V101H27.44V19.67h74.11m.7-.7H26.74v82.68h75.51V19Z"/><rect class="cls-3" x="62.84" y="42.17" width="32.98" height="18.26"/><path class="cls-2" d="M95.47,42.52V60.07H63.19V42.52H95.47m.7-.7H62.49v19H96.17v-19Z"/><rect class="cls-3" x="62.84" y="60.59" width="32.98" height="18.26"/><path class="cls-2" d="M95.47,60.94V78.5H63.19V60.94H95.47m.7-.7H62.49v19H96.17v-19Z"/><rect class="cls-3" x="62.84" y="23.74" width="32.98" height="18.26"/><path class="cls-2" d="M95.47,24.09V41.65H63.19V24.09H95.47m.7-.7H62.49v19H96.17v-19Z"/><rect class="cls-3" x="29.75" y="42.17" width="32.98" height="18.26"/><path class="cls-2" d="M62.38,42.52V60.07H30.1V42.52H62.38m.7-.7H29.4v19H63.08v-19Z"/><rect class="cls-3" x="29.75" y="60.59" width="32.98" height="18.26"/><path class="cls-2" d="M62.38,60.94V78.5H30.1V60.94H62.38m.7-.7H29.4v19H63.08v-19Z"/><rect class="cls-3" x="62.84" y="78.83" width="32.98" height="18.26"/><path class="cls-2" d="M95.47,79.18V96.73H63.19V79.18H95.47m.7-.71H62.49v19H96.17v-19Z"/><rect class="cls-3" x="29.75" y="79.08" width="32.98" height="18.26"/><path class="cls-2" d="M62.38,79.43V97H30.1V79.43H62.38m.7-.7H29.4v19H63.08v-19Z"/><rect class="cls-3" x="29.75" y="23.74" width="32.98" height="18.26"/><path class="cls-2" d="M62.38,24.09V41.65H30.1V24.09H62.38m.7-.7H29.4v19H63.08v-19Z"/><path class="cls-4" d="M89.76,78.41H37.64a.88.88,0,0,1-.47-1.62L88.72,44.46H37.64a.88.88,0,1,1,0-1.75H91.76a.88.88,0,0,1,.47,1.62L40.68,76.66H89.76a.88.88,0,1,1,0,1.75Z"/><polygon class="cls-4" points="86.27 80.5 89.24 77.53 86.27 74.56 88.79 74.56 91.76 77.53 88.79 80.5 86.27 80.5"/></svg>