<svg id="Ebene_1" data-name="Ebene 1" xmlns="http://www.w3.org/2000/svg" viewBox="0 0 120 120"><defs><style>.cls-1{fill:#dadada;}</style></defs><path class="cls-1" d="M30.48,76.43l8.38-8.37a8.12,8.12,0,0,1,10.59-.87l11.49,8.13a2.7,2.7,0,0,0,3.49-.3L76.32,63.15a8.13,8.13,0,0,1,11.49,0l7.7,7.68,10.54,11V23.38a2.71,2.71,0,0,0-2.71-2.71H22.65a2.71,2.71,0,0,0-2.71,2.71V87.69ZM65.7,30.16A14.9,14.9,0,1,1,50.81,45.05,14.9,14.9,0,0,1,65.7,30.16Z"/><path class="cls-1" d="M84,67a2.7,2.7,0,0,0-3.83,0h0L68.28,78.87a8.14,8.14,0,0,1-10.49.86L46.31,71.6a2.72,2.72,0,0,0-3.5.3L30.48,84.23,19.94,95.49v3.75A2.71,2.71,0,0,0,22.65,102h80.69a2.71,2.71,0,0,0,2.71-2.71V89.53l-10.54-11Z"/><path class="cls-1" d="M65.7,54.63a9.58,9.58,0,1,0-9.57-9.58A9.57,9.57,0,0,0,65.7,54.63Z"/></svg>