<svg id="Ebene_1" data-name="Ebene 1" xmlns="http://www.w3.org/2000/svg" viewBox="0 0 120 120"><defs><style>.cls-1{fill:#dadada;}</style></defs><path class="cls-1" d="M20.35,98.86a3.16,3.16,0,0,1-1,0,3.11,3.11,0,0,1-2.15-3.12V92.61A59.37,59.37,0,0,1,67.22,34V20.74a3.13,3.13,0,0,1,5-2.5l37.5,28.13a3.11,3.11,0,0,1,.62,4.37,3.37,3.37,0,0,1-.62.63L72.22,79.49a3.12,3.12,0,0,1-4.37-.63A3.08,3.08,0,0,1,67.22,77V65.27A58.28,58.28,0,0,0,29.51,88.46l-6.63,9.12A3.12,3.12,0,0,1,20.35,98.86ZM73.47,27v9.75a3.13,3.13,0,0,1-2.78,3.13A53.12,53.12,0,0,0,23.82,85.49l.5-.66A64.64,64.64,0,0,1,70,58.58a3.17,3.17,0,0,1,3.44,3.13v9l29.15-21.87Z"/></svg>