<?xml version="1.0" encoding="utf-8"?>
<!-- Generator: Adobe Illustrator 26.0.1, SVG Export Plug-In . SVG Version: 6.00 Build 0)  -->
<svg version="1.1" id="Ebene_1" xmlns="http://www.w3.org/2000/svg" xmlns:xlink="http://www.w3.org/1999/xlink" x="0px" y="0px"
	 viewBox="0 0 1336.85 743.68" style="enable-background:new 0 0 1336.85 743.68;" xml:space="preserve">
<style type="text/css">
	.st0{fill:#E7E6E6;}
	.st1{fill:none;stroke:#706F6F;stroke-width:2;stroke-miterlimit:10;stroke-dasharray:12.0552,12.0552;}
	.st2{fill:none;stroke:#706F6F;stroke-width:2;stroke-miterlimit:10;stroke-dasharray:11.97,11.97;}
	.st3{fill:#FFFFFF;stroke:#E94E1B;stroke-width:6;stroke-miterlimit:10;}
	.st4{fill:#FFFFFF;stroke:#706F6F;stroke-miterlimit:10;}
	.st5{fill:none;stroke:#706F6F;stroke-miterlimit:10;}
	.st6{fill:none;stroke:#000000;stroke-miterlimit:10;}
	.st7{fill:url(#SVGID_1_);stroke:#000000;stroke-miterlimit:10;}
	.st8{fill:url(#SVGID_00000139980349204683970690000015128517302560554142_);stroke:#000000;stroke-miterlimit:10;}
</style>
<rect x="-1.28" y="1.74" class="st0" width="1336.85" height="741.45"/>
<g>
	<path class="st1" d="M890.53,595.83H390.48c-39.18,0-70.95-31.76-70.95-70.95V235.2c0-39.18,31.76-70.95,70.95-70.95h500.05
		c39.18,0,70.95,31.76,70.95,70.95v289.69C961.48,564.07,929.71,595.83,890.53,595.83C890.53,595.83,929.71,595.83,890.53,595.83z"
		/>
</g>
<g>
	<path class="st2" d="M913.39,618.13H369.33c-39.18,0-70.95-31.76-70.95-70.95V212.9c0-39.18,31.76-70.95,70.95-70.95h544.07
		c39.18,0,70.95,31.76,70.95,70.95v334.28C984.34,586.36,952.58,618.13,913.39,618.13C913.39,618.13,952.58,618.13,913.39,618.13z"
		/>
</g>
<path class="st3" d="M903.85,607.84H380.76c-39.18,0-70.95-31.76-70.95-70.95v-312.7c0-39.18,31.76-70.95,70.95-70.95h523.09
	c39.18,0,70.95,31.76,70.95,70.95v312.7C974.8,576.07,943.03,607.84,903.85,607.84z"/>
<line class="st4" x1="341.36" y1="594.82" x2="941.11" y2="594.82"/>
<line class="st4" x1="312.05" y1="561.23" x2="967.91" y2="561.23"/>
<line class="st4" x1="312.05" y1="529.89" x2="972.72" y2="529.89"/>
<line class="st4" x1="312.05" y1="499.29" x2="972.72" y2="499.29"/>
<line class="st4" x1="312.05" y1="467.95" x2="972.72" y2="467.95"/>
<line class="st4" x1="312.05" y1="435.86" x2="972.72" y2="435.86"/>
<line class="st4" x1="312.05" y1="404.51" x2="972.53" y2="404.88"/>
<line class="st4" x1="312.05" y1="373.91" x2="972.53" y2="374.29"/>
<line class="st4" x1="312.05" y1="342.57" x2="972.53" y2="342.94"/>
<line class="st4" x1="312.05" y1="308.99" x2="972.53" y2="308.99"/>
<line class="st4" x1="312.05" y1="277.64" x2="972.53" y2="277.64"/>
<line class="st4" x1="312.05" y1="247.04" x2="972.53" y2="247.04"/>
<line class="st4" x1="324" y1="185.85" x2="961.48" y2="185.85"/>
<line class="st4" x1="312.05" y1="215.7" x2="972.53" y2="215.7"/>
<line class="st5" x1="785.34" y1="154.74" x2="785.34" y2="605.74"/>
<line class="st5" x1="818.93" y1="154.74" x2="818.93" y2="605.74"/>
<line class="st5" x1="850.27" y1="154.74" x2="850.27" y2="605.74"/>
<line class="st5" x1="880.87" y1="154.74" x2="880.87" y2="605.74"/>
<line class="st5" x1="912.21" y1="155.68" x2="912.21" y2="605.74"/>
<line class="st5" x1="944.3" y1="168" x2="944.3" y2="592.34"/>
<line class="st5" x1="342.79" y1="167.23" x2="342.79" y2="593.87"/>
<line class="st5" x1="376.37" y1="155.49" x2="376.37" y2="605.6"/>
<line class="st5" x1="407.71" y1="155.49" x2="407.71" y2="605.6"/>
<line class="st5" x1="438.31" y1="155.49" x2="438.31" y2="605.6"/>
<line class="st5" x1="469.66" y1="155.49" x2="469.66" y2="605.6"/>
<line class="st5" x1="501.75" y1="155.49" x2="501.75" y2="605.6"/>
<line class="st5" x1="533.09" y1="155.49" x2="533.09" y2="605.6"/>
<line class="st5" x1="563.69" y1="155.49" x2="563.69" y2="605.6"/>
<line class="st5" x1="595.04" y1="155.49" x2="595.04" y2="605.6"/>
<line class="st5" x1="628.62" y1="155.49" x2="628.62" y2="605.6"/>
<line class="st5" x1="659.96" y1="155.49" x2="659.96" y2="605.6"/>
<line class="st5" x1="690.56" y1="155.49" x2="690.56" y2="605.6"/>
<line class="st5" x1="751.76" y1="154.74" x2="751.76" y2="605.6"/>
<line class="st5" x1="721.91" y1="154.74" x2="721.91" y2="605.6"/>
<line class="st6" x1="1282.66" y1="9.56" x2="1282.66" y2="18.51"/>
<line class="st6" x1="1321.44" y1="9.56" x2="1321.44" y2="18.51"/>
<g>
	<linearGradient id="SVGID_1_" gradientUnits="userSpaceOnUse" x1="676.5958" y1="19.4043" x2="676.5958" y2="0">
		<stop  offset="0" style="stop-color:#A2A1A1"/>
		<stop  offset="1" style="stop-color:#616160"/>
	</linearGradient>
	<rect x="16.34" class="st7" width="1320.51" height="19.4"/>
	<line class="st6" x1="1263.49" y1="3.06" x2="1263.49" y2="18.51"/>
	<line class="st6" x1="1301.84" y1="3.06" x2="1301.84" y2="18.51"/>
	<g>
		<line class="st6" x1="953.49" y1="3.06" x2="953.49" y2="18.51"/>
		<line class="st6" x1="972.66" y1="9.56" x2="972.66" y2="18.51"/>
		<line class="st6" x1="991.84" y1="3.06" x2="991.84" y2="18.51"/>
		<line class="st6" x1="1011.44" y1="9.56" x2="1011.44" y2="18.51"/>
		<line class="st6" x1="1030.83" y1="3.06" x2="1030.83" y2="18.51"/>
		<line class="st6" x1="1050.22" y1="9.56" x2="1050.22" y2="18.51"/>
		<line class="st6" x1="1069.93" y1="3.06" x2="1069.93" y2="18.51"/>
		<line class="st6" x1="1089.21" y1="9.56" x2="1089.21" y2="18.51"/>
		<line class="st6" x1="1108.7" y1="3.06" x2="1108.7" y2="18.51"/>
		<line class="st6" x1="1128.09" y1="10.04" x2="1128.09" y2="18.51"/>
		<line class="st6" x1="1147.27" y1="3.06" x2="1147.27" y2="18.51"/>
		<line class="st6" x1="1166.76" y1="9.56" x2="1166.76" y2="18.51"/>
		<line class="st6" x1="1186.57" y1="3.06" x2="1186.57" y2="18.08"/>
		<line class="st6" x1="1205.75" y1="10.04" x2="1205.75" y2="18.51"/>
		<line class="st6" x1="1225.03" y1="3.06" x2="1225.03" y2="18.51"/>
		<line class="st6" x1="1244.53" y1="9.56" x2="1244.53" y2="18.51"/>
	</g>
	<g>
		<line class="st6" x1="643.49" y1="3.06" x2="643.49" y2="18.51"/>
		<line class="st6" x1="662.66" y1="9.56" x2="662.66" y2="18.51"/>
		<line class="st6" x1="681.84" y1="3.06" x2="681.84" y2="18.51"/>
		<line class="st6" x1="701.44" y1="9.56" x2="701.44" y2="18.51"/>
		<line class="st6" x1="720.83" y1="3.06" x2="720.83" y2="18.51"/>
		<line class="st6" x1="740.22" y1="9.56" x2="740.22" y2="18.51"/>
		<line class="st6" x1="759.93" y1="3.06" x2="759.93" y2="18.51"/>
		<line class="st6" x1="779.21" y1="9.56" x2="779.21" y2="18.51"/>
		<line class="st6" x1="798.7" y1="3.06" x2="798.7" y2="18.51"/>
		<line class="st6" x1="818.09" y1="10.04" x2="818.09" y2="18.51"/>
		<line class="st6" x1="837.27" y1="3.06" x2="837.27" y2="18.51"/>
		<line class="st6" x1="856.76" y1="9.56" x2="856.76" y2="18.51"/>
		<line class="st6" x1="876.57" y1="3.06" x2="876.57" y2="18.08"/>
		<line class="st6" x1="895.75" y1="10.04" x2="895.75" y2="18.51"/>
		<line class="st6" x1="915.03" y1="3.06" x2="915.03" y2="18.51"/>
		<line class="st6" x1="934.53" y1="9.56" x2="934.53" y2="18.51"/>
	</g>
	<g>
		<line class="st6" x1="333.49" y1="3.06" x2="333.49" y2="18.51"/>
		<line class="st6" x1="352.66" y1="9.56" x2="352.66" y2="18.51"/>
		<line class="st6" x1="371.84" y1="3.06" x2="371.84" y2="18.51"/>
		<line class="st6" x1="391.44" y1="9.56" x2="391.44" y2="18.51"/>
		<line class="st6" x1="410.83" y1="3.06" x2="410.83" y2="18.51"/>
		<line class="st6" x1="430.22" y1="9.56" x2="430.22" y2="18.51"/>
		<line class="st6" x1="449.93" y1="3.06" x2="449.93" y2="18.51"/>
		<line class="st6" x1="469.21" y1="9.56" x2="469.21" y2="18.51"/>
		<line class="st6" x1="488.7" y1="3.06" x2="488.7" y2="18.51"/>
		<line class="st6" x1="508.09" y1="10.04" x2="508.09" y2="18.51"/>
		<line class="st6" x1="527.27" y1="3.06" x2="527.27" y2="18.51"/>
		<line class="st6" x1="546.76" y1="9.56" x2="546.76" y2="18.51"/>
		<line class="st6" x1="566.57" y1="3.06" x2="566.57" y2="18.08"/>
		<line class="st6" x1="585.75" y1="10.04" x2="585.75" y2="18.51"/>
		<line class="st6" x1="605.03" y1="3.06" x2="605.03" y2="18.51"/>
		<line class="st6" x1="624.53" y1="9.56" x2="624.53" y2="18.51"/>
	</g>
	<g>
		<line class="st6" x1="23.49" y1="3.06" x2="23.49" y2="18.51"/>
		<line class="st6" x1="42.66" y1="9.56" x2="42.66" y2="18.51"/>
		<line class="st6" x1="61.84" y1="3.06" x2="61.84" y2="18.51"/>
		<line class="st6" x1="81.44" y1="9.56" x2="81.44" y2="18.51"/>
		<line class="st6" x1="100.83" y1="3.06" x2="100.83" y2="18.51"/>
		<line class="st6" x1="120.22" y1="9.56" x2="120.22" y2="18.51"/>
		<line class="st6" x1="139.93" y1="3.06" x2="139.93" y2="18.51"/>
		<line class="st6" x1="159.21" y1="9.56" x2="159.21" y2="18.51"/>
		<line class="st6" x1="178.7" y1="3.06" x2="178.7" y2="18.51"/>
		<line class="st6" x1="198.09" y1="10.04" x2="198.09" y2="18.51"/>
		<line class="st6" x1="217.27" y1="3.06" x2="217.27" y2="18.51"/>
		<line class="st6" x1="236.76" y1="9.56" x2="236.76" y2="18.51"/>
		<line class="st6" x1="256.57" y1="3.06" x2="256.57" y2="18.08"/>
		<line class="st6" x1="275.75" y1="10.04" x2="275.75" y2="18.51"/>
		<line class="st6" x1="295.03" y1="3.06" x2="295.03" y2="18.51"/>
		<line class="st6" x1="314.53" y1="9.56" x2="314.53" y2="18.51"/>
	</g>
</g>
<g>
	
		<linearGradient id="SVGID_00000068655023177098671900000003312821733336868537_" gradientUnits="userSpaceOnUse" x1="707.3293" y1="912.5529" x2="707.3293" y2="894.1277" gradientTransform="matrix(6.123234e-17 1 -1 6.123234e-17 913.5319 -334.4681)">
		<stop  offset="0" style="stop-color:#A2A1A1"/>
		<stop  offset="1" style="stop-color:#616160"/>
	</linearGradient>
	
		<polygon style="fill:url(#SVGID_00000068655023177098671900000003312821733336868537_);stroke:#000000;stroke-miterlimit:10;" points="
		0.98,745.72 0.98,0 19.4,0 19.4,745.72 	"/>
	<line class="st6" x1="17.32" y1="672.36" x2="1.87" y2="672.36"/>
	<line class="st6" x1="17.32" y1="710.71" x2="1.87" y2="710.71"/>
	<g>
		<line class="st6" x1="17.32" y1="362.36" x2="1.87" y2="362.36"/>
		<line class="st6" x1="10.82" y1="381.54" x2="1.87" y2="381.54"/>
		<line class="st6" x1="17.32" y1="400.71" x2="1.87" y2="400.71"/>
		<line class="st6" x1="10.82" y1="420.31" x2="1.87" y2="420.31"/>
		<line class="st6" x1="17.32" y1="439.7" x2="1.87" y2="439.7"/>
		<line class="st6" x1="10.82" y1="459.09" x2="1.87" y2="459.09"/>
		<line class="st6" x1="17.32" y1="478.8" x2="1.87" y2="478.8"/>
		<line class="st6" x1="10.82" y1="498.08" x2="1.87" y2="498.08"/>
		<line class="st6" x1="17.32" y1="517.57" x2="1.87" y2="517.57"/>
		<line class="st6" x1="10.34" y1="536.96" x2="1.87" y2="536.96"/>
		<line class="st6" x1="17.32" y1="556.14" x2="1.87" y2="556.14"/>
		<line class="st6" x1="10.82" y1="575.63" x2="1.87" y2="575.63"/>
		<line class="st6" x1="17.32" y1="595.45" x2="2.3" y2="595.45"/>
		<line class="st6" x1="10.34" y1="728.62" x2="1.87" y2="728.62"/>
		<line class="st6" x1="10.34" y1="690.62" x2="1.87" y2="690.62"/>
		<line class="st6" x1="10.34" y1="614.62" x2="1.87" y2="614.62"/>
		<line class="st6" x1="17.32" y1="633.9" x2="1.87" y2="633.9"/>
		<line class="st6" x1="10.82" y1="653.4" x2="1.87" y2="653.4"/>
	</g>
	<g>
		<line class="st6" x1="17.32" y1="52.36" x2="1.87" y2="52.36"/>
		<line class="st6" x1="10.82" y1="71.54" x2="1.87" y2="71.54"/>
		<line class="st6" x1="17.32" y1="90.71" x2="1.87" y2="90.71"/>
		<line class="st6" x1="10.82" y1="110.31" x2="1.87" y2="110.31"/>
		<line class="st6" x1="17.32" y1="129.7" x2="1.87" y2="129.7"/>
		<line class="st6" x1="10.82" y1="149.09" x2="1.87" y2="149.09"/>
		<line class="st6" x1="17.32" y1="168.8" x2="1.87" y2="168.8"/>
		<line class="st6" x1="10.82" y1="188.08" x2="1.87" y2="188.08"/>
		<line class="st6" x1="17.32" y1="207.57" x2="1.87" y2="207.57"/>
		<line class="st6" x1="10.34" y1="226.96" x2="1.87" y2="226.96"/>
		<line class="st6" x1="17.32" y1="246.14" x2="1.87" y2="246.14"/>
		<line class="st6" x1="10.82" y1="265.63" x2="1.87" y2="265.63"/>
		<line class="st6" x1="17.32" y1="285.45" x2="2.3" y2="285.45"/>
		<line class="st6" x1="10.34" y1="304.62" x2="1.87" y2="304.62"/>
		<line class="st6" x1="17.32" y1="323.9" x2="1.87" y2="323.9"/>
		<line class="st6" x1="10.82" y1="343.4" x2="1.87" y2="343.4"/>
	</g>
	<g>
		<line class="st6" x1="17.32" y1="13.9" x2="1.87" y2="13.9"/>
		<line class="st6" x1="10.82" y1="33.4" x2="1.87" y2="33.4"/>
	</g>
</g>
<line class="st6" x1="1319.13" y1="10.28" x2="1319.13" y2="18.75"/>
<line class="st6" x1="1283.13" y1="10.28" x2="1283.13" y2="18.75"/>
</svg>
