<svg id="Ebene_1" data-name="Ebene 1" xmlns="http://www.w3.org/2000/svg" xmlns:xlink="http://www.w3.org/1999/xlink" viewBox="0 0 1321.51 20.4"><defs><style>.cls-1,.cls-2{stroke:#010101;stroke-miterlimit:10;}.cls-1{fill:url(#Unbenannter_Verlauf_2);}.cls-2{fill:none;}</style><linearGradient id="Unbenannter_Verlauf_2" x1="660.25" y1="6.78" x2="660.25" y2="26.18" gradientTransform="matrix(1, 0, 0, -1, 0.5, 26.68)" gradientUnits="userSpaceOnUse"><stop offset="0" stop-color="#a3a1a1"/><stop offset="1" stop-color="#626261"/></linearGradient></defs><rect class="cls-1" x="0.5" y="0.5" width="1320.51" height="19.4"/><line class="cls-2" x1="1247.65" y1="3.56" x2="1247.65" y2="19.01"/><line class="cls-2" x1="1286" y1="3.56" x2="1286" y2="19.01"/><line class="cls-2" x1="937.65" y1="3.56" x2="937.65" y2="19.01"/><line class="cls-2" x1="956.82" y1="10.06" x2="956.82" y2="19.01"/><line class="cls-2" x1="976" y1="3.56" x2="976" y2="19.01"/><line class="cls-2" x1="995.6" y1="10.06" x2="995.6" y2="19.01"/><line class="cls-2" x1="1014.99" y1="3.56" x2="1014.99" y2="19.01"/><line class="cls-2" x1="1034.38" y1="10.06" x2="1034.38" y2="19.01"/><line class="cls-2" x1="1054.09" y1="3.56" x2="1054.09" y2="19.01"/><line class="cls-2" x1="1073.37" y1="10.06" x2="1073.37" y2="19.01"/><line class="cls-2" x1="1092.86" y1="3.56" x2="1092.86" y2="19.01"/><line class="cls-2" x1="1112.25" y1="10.54" x2="1112.25" y2="19.01"/><line class="cls-2" x1="1131.43" y1="3.56" x2="1131.43" y2="19.01"/><line class="cls-2" x1="1150.92" y1="10.06" x2="1150.92" y2="19.01"/><line class="cls-2" x1="1170.73" y1="3.56" x2="1170.73" y2="18.58"/><line class="cls-2" x1="1189.91" y1="10.54" x2="1189.91" y2="19.01"/><line class="cls-2" x1="1209.19" y1="3.56" x2="1209.19" y2="19.01"/><line class="cls-2" x1="1228.69" y1="10.06" x2="1228.69" y2="19.01"/><line class="cls-2" x1="627.65" y1="3.56" x2="627.65" y2="19.01"/><line class="cls-2" x1="646.82" y1="10.06" x2="646.82" y2="19.01"/><line class="cls-2" x1="666" y1="3.56" x2="666" y2="19.01"/><line class="cls-2" x1="685.6" y1="10.06" x2="685.6" y2="19.01"/><line class="cls-2" x1="704.99" y1="3.56" x2="704.99" y2="19.01"/><line class="cls-2" x1="724.38" y1="10.06" x2="724.38" y2="19.01"/><line class="cls-2" x1="744.09" y1="3.56" x2="744.09" y2="19.01"/><line class="cls-2" x1="763.37" y1="10.06" x2="763.37" y2="19.01"/><line class="cls-2" x1="782.86" y1="3.56" x2="782.86" y2="19.01"/><line class="cls-2" x1="802.25" y1="10.54" x2="802.25" y2="19.01"/><line class="cls-2" x1="821.43" y1="3.56" x2="821.43" y2="19.01"/><line class="cls-2" x1="840.92" y1="10.06" x2="840.92" y2="19.01"/><line class="cls-2" x1="860.73" y1="3.56" x2="860.73" y2="18.58"/><line class="cls-2" x1="879.91" y1="10.54" x2="879.91" y2="19.01"/><line class="cls-2" x1="899.19" y1="3.56" x2="899.19" y2="19.01"/><line class="cls-2" x1="918.69" y1="10.06" x2="918.69" y2="19.01"/><line class="cls-2" x1="317.65" y1="3.56" x2="317.65" y2="19.01"/><line class="cls-2" x1="336.82" y1="10.06" x2="336.82" y2="19.01"/><line class="cls-2" x1="356" y1="3.56" x2="356" y2="19.01"/><line class="cls-2" x1="375.6" y1="10.06" x2="375.6" y2="19.01"/><line class="cls-2" x1="394.99" y1="3.56" x2="394.99" y2="19.01"/><line class="cls-2" x1="414.38" y1="10.06" x2="414.38" y2="19.01"/><line class="cls-2" x1="434.09" y1="3.56" x2="434.09" y2="19.01"/><line class="cls-2" x1="453.37" y1="10.06" x2="453.37" y2="19.01"/><line class="cls-2" x1="472.86" y1="3.56" x2="472.86" y2="19.01"/><line class="cls-2" x1="492.25" y1="10.54" x2="492.25" y2="19.01"/><line class="cls-2" x1="511.43" y1="3.56" x2="511.43" y2="19.01"/><line class="cls-2" x1="530.92" y1="10.06" x2="530.92" y2="19.01"/><line class="cls-2" x1="550.73" y1="3.56" x2="550.73" y2="18.58"/><line class="cls-2" x1="569.91" y1="10.54" x2="569.91" y2="19.01"/><line class="cls-2" x1="589.19" y1="3.56" x2="589.19" y2="19.01"/><line class="cls-2" x1="608.69" y1="10.06" x2="608.69" y2="19.01"/><line class="cls-2" x1="7.65" y1="3.56" x2="7.65" y2="19.01"/><line class="cls-2" x1="26.82" y1="10.06" x2="26.82" y2="19.01"/><line class="cls-2" x1="46" y1="3.56" x2="46" y2="19.01"/><line class="cls-2" x1="65.6" y1="10.06" x2="65.6" y2="19.01"/><line class="cls-2" x1="84.99" y1="3.56" x2="84.99" y2="19.01"/><line class="cls-2" x1="104.38" y1="10.06" x2="104.38" y2="19.01"/><line class="cls-2" x1="124.09" y1="3.56" x2="124.09" y2="19.01"/><line class="cls-2" x1="143.37" y1="10.06" x2="143.37" y2="19.01"/><line class="cls-2" x1="162.86" y1="3.56" x2="162.86" y2="19.01"/><line class="cls-2" x1="182.25" y1="10.54" x2="182.25" y2="19.01"/><line class="cls-2" x1="201.43" y1="3.56" x2="201.43" y2="19.01"/><line class="cls-2" x1="220.92" y1="10.06" x2="220.92" y2="19.01"/><line class="cls-2" x1="240.73" y1="3.56" x2="240.73" y2="18.58"/><line class="cls-2" x1="259.91" y1="10.54" x2="259.91" y2="19.01"/><line class="cls-2" x1="279.19" y1="3.56" x2="279.19" y2="19.01"/><line class="cls-2" x1="298.69" y1="10.06" x2="298.69" y2="19.01"/></svg>