<?xml version="1.0" encoding="utf-8"?>
<!-- Generator: Adobe Illustrator 25.0.0, SVG Export Plug-In . SVG Version: 6.00 Build 0)  -->
<svg version="1.1" id="Ebene_1" xmlns="http://www.w3.org/2000/svg" xmlns:xlink="http://www.w3.org/1999/xlink" x="0px" y="0px"
	 viewBox="0 0 460.85 129.11" style="enable-background:new 0 0 460.85 129.11;" xml:space="preserve">
<style type="text/css">
	.st0{fill:#1A2435;}
	.st1{fill-rule:evenodd;clip-rule:evenodd;fill:#FFFFFF;}
	.st2{fill:#FFFFFF;}
</style>
<path class="st0" d="M411.7,126.62H2.77V3.43H411.7c25.06,0,45.38,20.32,45.38,45.38v32.43C457.08,106.3,436.76,126.62,411.7,126.62
	z"/>
<g>
	<g>
		<rect x="192.3" y="37.01" class="st1" width="38" height="13.46"/>
		<path class="st1" d="M211.07,58.56v13.95c0,2.9,0.44,4.8,1.34,5.7c0.88,0.91,2.74,1.36,5.56,1.36h10.39v13.46h-15.02
			c-6.34,0-10.98-1.57-13.91-4.72c-2.91-3.15-4.37-8.15-4.37-15.02V58.56H211.07z"/>
	</g>
	<path class="st1" d="M280.21,37.01v56.02h-27.52c-5.33-0.03-9.21-0.83-11.66-2.38c-2.56-1.55-4.4-3.63-5.53-6.19
		c-1.13-2.58-1.71-5.98-1.71-10.23V37.01h16.18v35.5c0,2.9,0.43,4.8,1.3,5.7c0.85,0.91,2.68,1.36,5.48,1.36h7.29V37.01H280.21z"/>
	<path class="st1" d="M86.34,37.01h20.18c5.99,0,10.27,0.52,12.87,1.56c3.71,1.48,6.3,3.96,7.8,7.44c0.84,1.91,1.25,3.94,1.25,6.07
		c0,3.89-1.16,7.07-3.49,9.57c-1.07,1.15-2.24,2.03-3.52,2.65c-1.28,0.62-3.08,1.16-5.37,1.65c1.84,0.39,3.25,0.81,4.24,1.3
		c1,0.48,1.9,1.16,2.71,2.07c1.84,2.05,2.77,5.02,2.8,8.9v14.82h-16.14V79.86c0-2.98-0.68-5.04-2.05-6.16
		c-1.01-0.82-2.63-1.35-4.89-1.57v20.9h-2h-5.22h-2h-5.22h-2V58.56h0.06v-0.01h19.06c2.71,0,4.46-0.46,5.27-1.4
		c0.66-0.76,0.99-1.65,0.99-2.66c0-1.37-0.46-2.38-1.35-3.04c-0.91-0.66-2.34-0.98-4.3-0.98H86.34V37.01z"/>
	<path class="st1" d="M160.67,49.41c-4.26,0-7.52,1.48-9.79,4.46c-2.08,2.74-3.11,6.41-3.11,11.01c0,4.85,1.2,8.76,3.61,11.72
		c2.18,2.68,5.35,4.03,9.49,4.03c4.49,0,7.83-1.62,10.04-4.85c1.91-2.82,2.86-6.33,2.86-10.54c0-5.13-1.27-9.11-3.81-11.93
		C167.69,50.77,164.59,49.46,160.67,49.41 M160.58,37.01c5.01,0,9.7,1.02,14.1,3.07c5.95,2.8,10.21,7.03,12.77,12.72
		c1.63,3.63,2.45,7.79,2.45,12.48c0,7.97-2.69,14.6-8.09,19.89c-5.34,5.24-12.22,7.86-20.66,7.86c-8.41,0-15.35-2.51-20.83-7.51
		c-5.81-5.31-8.71-12.08-8.71-20.28c0-5.08,1.19-9.78,3.57-14.1c2.65-4.85,6.63-8.56,11.91-11.13
		C151.08,38.09,155.58,37.09,160.58,37.01z"/>
	<g>
		<g>
			<path class="st2" d="M296.89,79.33v13.7h-4.62v-35h12.91c3.83,0,6.83,0.98,9,2.93c2.17,1.96,3.26,4.54,3.26,7.76
				c0,3.4-1.06,6.01-3.19,7.85c-2.12,1.83-5.16,2.75-9.12,2.75H296.89z M296.89,75.56h8.29c2.47,0,4.36-0.58,5.67-1.75
				c1.31-1.16,1.97-2.85,1.97-5.05c0-2.09-0.66-3.76-1.97-5.01c-1.31-1.25-3.12-1.9-5.41-1.95h-8.56V75.56z"/>
			<path class="st2" d="M336.17,78.87h-8.22v14.16h-4.64v-35h11.59c3.94,0,6.98,0.9,9.1,2.69c2.12,1.79,3.19,4.41,3.19,7.84
				c0,2.18-0.59,4.08-1.77,5.7c-1.18,1.62-2.82,2.83-4.92,3.63l8.22,14.86v0.29h-4.95L336.17,78.87z M327.95,75.1h7.09
				c2.29,0,4.11-0.59,5.47-1.78c1.35-1.19,2.03-2.78,2.03-4.77c0-2.17-0.65-3.83-1.94-4.98c-1.29-1.16-3.15-1.74-5.59-1.76h-7.07
				V75.1z"/>
			<path class="st2" d="M358.6,93.03h-4.62v-35h4.62V93.03z"/>
			<path class="st2" d="M393.93,93.03h-4.64l-17.62-26.97v26.97h-4.64v-35h4.64l17.67,27.09V58.03h4.59V93.03z"/>
			<path class="st2" d="M425.61,61.81h-11.25v31.23h-4.59V61.81h-11.23v-3.77h27.07V61.81z"/>
		</g>
	</g>
</g>
</svg>
