<svg id="Ebene_1" data-name="Ebene 1" xmlns="http://www.w3.org/2000/svg" viewBox="0 0 120 120"><defs><style>.cls-1{fill:#dadada;}</style></defs><path class="cls-1" d="M84.47,50.77V39.1A18.67,18.67,0,0,0,65.8,20.43H61.13A18.67,18.67,0,0,0,42.46,39.1V50.77a7,7,0,0,0-7,7V83.44a7,7,0,0,0,7,7h42a7,7,0,0,0,7-7V57.77A7,7,0,0,0,84.47,50.77ZM58.8,67.11a4.67,4.67,0,1,1,9.33,0,4.61,4.61,0,0,1-2.33,4v7.71H61.13V71.06A4.61,4.61,0,0,1,58.8,67.11Zm-11.67-28a14,14,0,0,1,14-14H65.8a14,14,0,0,1,14,14V50.77H47.13Z"/></svg>