<svg id="Ebene_1" data-name="Ebene 1" xmlns="http://www.w3.org/2000/svg" viewBox="0 0 120 120"><defs><style>.cls-1{fill:#dadada;}</style></defs><path class="cls-1" d="M111.34,46.77H33.45a3.37,3.37,0,0,0-3.38,2.67L20.74,93a3.22,3.22,0,0,1-.83-2.17v-61a3.38,3.38,0,0,1,3.38-3.38H45.41L55.7,38.77A3.35,3.35,0,0,0,58.28,40h42.9a3.39,3.39,0,1,0,0-6.77H59.87L49.61,20.89A3.41,3.41,0,0,0,47,19.67H23.29A10.16,10.16,0,0,0,13.13,29.83v61A10.16,10.16,0,0,0,23.29,101H95.7a10.15,10.15,0,0,0,10-8l9.08-42.07a3.4,3.4,0,0,0-3.39-4.09Z"/></svg>