<svg id="Ebene_1" data-name="Ebene 1" xmlns="http://www.w3.org/2000/svg" viewBox="0 0 120 120"><defs><style>.cls-1{fill:#dadada;}</style></defs><path class="cls-1" d="M76,48.56a24,24,0,0,0-6.49.92l2,3.64a19.59,19.59,0,0,1,4.5-.56,20,20,0,1,1-19,26H52.74A24,24,0,1,0,76,48.56Z"/><path class="cls-1" d="M56,72.57a19.92,19.92,0,0,0,1,6H75.31a5.93,5.93,0,0,0,5.14-2.92,5.78,5.78,0,0,0,.11-5.81l-9.1-16.72A20,20,0,0,0,56,72.57Z"/><path class="cls-1" d="M69.47,49.48,58.69,29.67a5.92,5.92,0,0,0-2.37-2.36,6,6,0,0,0-8.14,2.36L26.3,69.84a5.82,5.82,0,0,0,.11,5.81,5.93,5.93,0,0,0,5.15,2.92H52.74a24.24,24.24,0,0,1-.78-6A24,24,0,0,1,69.47,49.48Z"/></svg>