<svg id="Ebene_1" data-name="Ebene 1" xmlns="http://www.w3.org/2000/svg" viewBox="0 0 120 120"><defs><style>.cls-1{fill:#ededed;}.cls-2{fill:#3f4a54;}.cls-3{fill:#dadada;stroke:#fff;stroke-miterlimit:10;}.cls-4{fill:#ed6e2f;}</style></defs><rect class="cls-1" x="19.68" y="18.78" width="74.82" height="81.98"/><path class="cls-2" d="M94.14,19.13V100.4H20V19.13H94.14m.7-.7H19.33v82.68H94.84V18.43Z"/><rect class="cls-3" x="55.43" y="41.62" width="32.98" height="18.26"/><path class="cls-2" d="M88.06,42V59.53H55.78V42H88.06m.7-.7H55.08v19H88.76v-19Z"/><rect class="cls-3" x="55.43" y="60.04" width="32.98" height="18.26"/><path class="cls-2" d="M88.06,60.39V78H55.78V60.39H88.06m.7-.7H55.08v19H88.76v-19Z"/><rect class="cls-3" x="55.43" y="23.19" width="32.98" height="18.26"/><path class="cls-2" d="M88.06,23.54V41.1H55.78V23.54H88.06m.7-.7H55.08v19H88.76v-19Z"/><rect class="cls-3" x="22.34" y="41.62" width="32.98" height="18.26"/><path class="cls-2" d="M55,42V59.53H22.69V42H55m.7-.7H22v19H55.67v-19Z"/><rect class="cls-3" x="22.34" y="60.04" width="32.98" height="18.26"/><path class="cls-2" d="M55,60.39V78H22.69V60.39H55m.7-.7H22v19H55.67v-19Z"/><rect class="cls-3" x="55.43" y="78.28" width="32.98" height="18.26"/><path class="cls-2" d="M88.06,78.63V96.19H55.78V78.63H88.06m.7-.7H55.08v19H88.76v-19Z"/><rect class="cls-3" x="22.34" y="78.53" width="32.98" height="18.26"/><path class="cls-2" d="M55,78.88V96.44H22.69V78.88H55m.7-.7H22v19H55.67v-19Z"/><rect class="cls-3" x="22.34" y="23.19" width="32.98" height="18.26"/><path class="cls-2" d="M55,23.54V41.1H22.69V23.54H55m.7-.7H22v19H55.67v-19Z"/><path class="cls-4" d="M36.51,86.72a1,1,0,0,1-.24,0,.89.89,0,0,1-.64-.85V31.72a.88.88,0,0,1,1.76,0V82.8L69.72,31.25a.88.88,0,0,1,1.62.47V83.84a.88.88,0,0,1-1.76,0V34.76L37.25,86.31A.86.86,0,0,1,36.51,86.72Z"/><polygon class="cls-4" points="67.49 80.35 70.46 83.32 73.43 80.35 73.43 82.87 70.46 85.84 67.49 82.87 67.49 80.35"/></svg>