<svg id="Ebene_1" data-name="Ebene 1" xmlns="http://www.w3.org/2000/svg" viewBox="0 0 120 120"><defs><style>.cls-1{fill:#ed6e2f;}.cls-2{fill:#dadada;}</style></defs><path class="cls-1" d="M91.29,18.76H38.09a14.06,14.06,0,0,0-14,14V86a14.06,14.06,0,0,0,14,14h53.2a14.06,14.06,0,0,0,14-14V32.8A14.06,14.06,0,0,0,91.29,18.76ZM101.11,86a9.83,9.83,0,0,1-9.82,9.81H38.09A9.83,9.83,0,0,1,28.27,86V32.8A9.84,9.84,0,0,1,38.09,23h53.2a9.84,9.84,0,0,1,9.82,9.82Z"/><rect class="cls-2" x="34.78" y="36.54" width="59.81" height="2.99"/><rect class="cls-2" x="43.58" y="44.38" width="42.22" height="2.99"/><rect class="cls-2" x="34.78" y="53.63" width="59.81" height="2.99"/><rect class="cls-2" x="43.58" y="62.18" width="42.22" height="2.99"/><rect class="cls-2" x="34.78" y="70.72" width="59.81" height="2.99"/><rect class="cls-2" x="43.58" y="79.27" width="42.22" height="2.99"/></svg>