<svg id="Ebene_1" data-name="Ebene 1" xmlns="http://www.w3.org/2000/svg" viewBox="0 0 120 120"><defs><style>.cls-1{fill:#ed6e2f;}.cls-2{fill:#dadada;}</style></defs><path class="cls-1" d="M93.09,18.42H39.88a14,14,0,0,0-14,14V85.66a14,14,0,0,0,14,14H93.09a14,14,0,0,0,14-14V32.45A14,14,0,0,0,93.09,18.42Zm9.81,67.24a9.82,9.82,0,0,1-9.81,9.81H39.88a9.82,9.82,0,0,1-9.81-9.81V32.45a9.83,9.83,0,0,1,9.81-9.81H93.09a9.83,9.83,0,0,1,9.81,9.81Z"/><path class="cls-2" d="M47.82,34.52h16.8c10.19,0,18.11,2.79,18.11,12.17,0,4.4-2.47,9.09-6.47,10.59v.31c5,1.3,8.89,5,8.89,11.55,0,10-8.45,14.46-19.12,14.46H47.82ZM64.11,54.18c5.39,0,7.77-2.28,7.77-5.85,0-3.78-2.52-5.25-7.69-5.25H58.92v11.1Zm1,20.86c6,0,9.18-2.15,9.18-6.61s-3.07-6.07-9.18-6.07h-6.2V75Z"/></svg>