<svg id="Ebene_1" data-name="Ebene 1" xmlns="http://www.w3.org/2000/svg" viewBox="0 0 120 120"><defs><style>.cls-1{fill:#dadada;}</style></defs><path class="cls-1" d="M94.93,56.27h-9V32.14A2.89,2.89,0,0,0,83,29.25H69.81a2.89,2.89,0,0,0-2.88,2.89V56.27H59.24V25.89a3.2,3.2,0,0,0-3.2-3.2H43.46a3.2,3.2,0,0,0-3.2,3.2V56.27h-9a1.43,1.43,0,0,0,0,2.85h9V89.5a3.2,3.2,0,0,0,3.2,3.2H56a3.2,3.2,0,0,0,3.2-3.2V59.12h7.69V83.25a2.88,2.88,0,0,0,2.88,2.89H83a2.88,2.88,0,0,0,2.88-2.89V59.12h9a1.43,1.43,0,0,0,0-2.85Z"/></svg>