<svg id="Ebene_1" data-name="Ebene 1" xmlns="http://www.w3.org/2000/svg" viewBox="0 0 120 120"><defs><style>.cls-1{fill:#dadada;}</style></defs><path class="cls-1" d="M44.18,51.88,28.49,27.09H38L45,38.47c1.59,2.85,3.35,5.79,5.08,8.64h.42c1.58-2.85,3.12-5.79,4.69-8.64l6.33-11.38h9.15L54.93,52.81,71.88,79H62.36L54.72,66.89c-1.8-3.12-3.69-6.32-5.63-9.31h-.43c-1.78,3-3.46,6.15-5.24,9.31L36.38,79H27.24Z"/><path class="cls-1" d="M78.11,93.75C91.3,80.6,98.76,72.7,98.76,65.56c0-5-2.72-8.56-8.32-8.56-3.68,0-6.83,2.32-9.33,5.26l-3.29-3.2c3.68-4,7.63-6.67,13.31-6.67,8.11,0,13.18,5.12,13.18,12.92,0,8.23-7.57,16.42-17.92,27.3,2.38-.19,5.11-.38,7.38-.38h12.69V97.1H78.11Z"/></svg>