<?xml version="1.0" standalone="no"?>
<!DOCTYPE svg PUBLIC "-//W3C//DTD SVG 20010904//EN"
 "http://www.w3.org/TR/2001/REC-SVG-20010904/DTD/svg10.dtd">
<svg version="1.0" xmlns="http://www.w3.org/2000/svg"
 width="292.000000pt" height="162.000000pt" viewBox="0 0 292.000000 162.000000"
 preserveAspectRatio="xMidYMid meet">

<g transform="translate(0.000000,162.000000) scale(0.100000,-0.100000)"
fill="#000000" stroke="none">
<path d="M80 935 c0 -618 0 -625 20 -625 20 0 20 7 20 625 0 618 0 625 -20
625 -20 0 -20 -7 -20 -625z"/>
<path d="M150 935 c0 -410 3 -625 10 -625 7 0 10 215 10 625 0 410 -3 625 -10
625 -7 0 -10 -215 -10 -625z"/>
<path d="M230 935 l0 -625 35 0 35 0 0 625 0 625 -35 0 -35 0 0 -625z"/>
<path d="M350 935 c0 -410 3 -625 10 -625 7 0 10 215 10 625 0 410 -3 625 -10
625 -7 0 -10 -215 -10 -625z"/>
<path d="M400 935 l0 -625 35 0 35 0 0 625 0 625 -35 0 -35 0 0 -625z"/>
<path d="M530 935 c0 -618 0 -625 20 -625 20 0 20 7 20 625 0 618 0 625 -20
625 -20 0 -20 -7 -20 -625z"/>
<path d="M630 935 l0 -625 45 0 45 0 0 625 0 625 -45 0 -45 0 0 -625z"/>
<path d="M800 935 c0 -410 3 -625 10 -625 7 0 10 215 10 625 0 410 -3 625 -10
625 -7 0 -10 -215 -10 -625z"/>
<path d="M850 935 c0 -410 3 -625 10 -625 7 0 10 215 10 625 0 410 -3 625 -10
625 -7 0 -10 -215 -10 -625z"/>
<path d="M900 935 l0 -625 35 0 35 0 0 625 0 625 -35 0 -35 0 0 -625z"/>
<path d="M1000 935 l0 -625 50 0 50 0 0 625 0 625 -50 0 -50 0 0 -625z"/>
<path d="M1130 935 c0 -410 3 -625 10 -625 7 0 10 215 10 625 0 410 -3 625
-10 625 -7 0 -10 -215 -10 -625z"/>
<path d="M1180 935 c0 -618 0 -625 20 -625 20 0 20 7 20 625 0 618 0 625 -20
625 -20 0 -20 -7 -20 -625z"/>
<path d="M1250 935 l0 -625 25 0 25 0 0 625 0 625 -25 0 -25 0 0 -625z"/>
<path d="M1350 935 l0 -625 25 0 25 0 0 625 0 625 -25 0 -25 0 0 -625z"/>
<path d="M1450 935 l0 -625 35 0 35 0 0 625 0 625 -35 0 -35 0 0 -625z"/>
<path d="M1550 935 c0 -410 3 -625 10 -625 7 0 10 215 10 625 0 410 -3 625
-10 625 -7 0 -10 -215 -10 -625z"/>
<path d="M1600 935 l0 -625 50 0 50 0 0 625 0 625 -50 0 -50 0 0 -625z"/>
<path d="M1730 935 c0 -410 3 -625 10 -625 7 0 10 215 10 625 0 410 -3 625
-10 625 -7 0 -10 -215 -10 -625z"/>
<path d="M1800 935 l0 -625 25 0 25 0 0 625 0 625 -25 0 -25 0 0 -625z"/>
<path d="M1880 935 l0 -625 35 0 35 0 0 625 0 625 -35 0 -35 0 0 -625z"/>
<path d="M2000 935 c0 -410 3 -625 10 -625 7 0 10 215 10 625 0 410 -3 625
-10 625 -7 0 -10 -215 -10 -625z"/>
<path d="M2080 935 l0 -625 35 0 35 0 0 625 0 625 -35 0 -35 0 0 -625z"/>
<path d="M2200 935 l0 -625 25 0 25 0 0 625 0 625 -25 0 -25 0 0 -625z"/>
<path d="M2280 935 c0 -410 3 -625 10 -625 7 0 10 215 10 625 0 410 -3 625
-10 625 -7 0 -10 -215 -10 -625z"/>
<path d="M2330 935 l0 -625 45 0 45 0 0 625 0 625 -45 0 -45 0 0 -625z"/>
<path d="M2500 935 c0 -410 3 -625 10 -625 7 0 10 215 10 625 0 410 -3 625
-10 625 -7 0 -10 -215 -10 -625z"/>
<path d="M2550 935 l0 -625 25 0 25 0 0 625 0 625 -25 0 -25 0 0 -625z"/>
<path d="M2680 935 l0 -625 35 0 35 0 0 625 0 625 -35 0 -35 0 0 -625z"/>
<path d="M2780 935 c0 -410 3 -625 10 -625 7 0 10 215 10 625 0 410 -3 625
-10 625 -7 0 -10 -215 -10 -625z"/>
<path d="M2830 935 c0 -618 0 -625 20 -625 20 0 20 7 20 625 0 618 0 625 -20
625 -20 0 -20 -7 -20 -625z"/>
<path d="M833 180 c-13 -5 -23 -14 -23 -20 0 -8 6 -8 20 0 19 10 20 8 20 -50
0 -53 -2 -60 -20 -60 -11 0 -20 -4 -20 -10 0 -5 23 -10 50 -10 28 0 50 5 50
10 0 6 -9 10 -20 10 -18 0 -20 7 -20 70 0 73 -1 74 -37 60z"/>
<path d="M950 151 c0 -37 2 -40 33 -43 27 -2 32 -7 32 -28 0 -21 -5 -26 -32
-28 -37 -4 -45 -22 -10 -22 68 0 92 76 30 95 -44 12 -46 45 -3 45 17 0 30 5
30 10 0 6 -18 10 -40 10 -40 0 -40 0 -40 -39z"/>
<path d="M1105 165 c-42 -42 -24 -135 26 -135 22 0 59 34 59 54 0 27 -31 48
-62 42 -31 -6 -33 -4 -18 25 6 11 21 19 35 19 13 0 27 5 30 10 13 21 -47 9
-70 -15z m65 -85 c0 -25 -30 -41 -53 -29 -23 13 -22 56 1 62 25 5 52 -11 52
-33z"/>
<path d="M1234 175 c-17 -13 -16 -14 19 -8 35 5 37 4 37 -21 0 -16 -14 -41
-35 -65 -19 -21 -35 -41 -35 -45 0 -3 23 -6 50 -6 28 0 50 5 50 10 0 6 -17 10
-37 10 l-37 0 32 33 c60 62 23 142 -44 92z"/>
<path d="M1400 183 c-27 -10 -40 -36 -40 -85 0 -38 4 -50 21 -58 31 -17 68 -4
75 27 9 36 -7 58 -45 58 -17 0 -31 5 -31 10 0 18 23 35 47 35 13 0 23 5 23 10
0 11 -25 12 -50 3z m24 -69 c9 -3 16 -17 16 -30 0 -28 -33 -50 -47 -31 -20 26
-22 47 -5 56 21 13 17 12 36 5z"/>
<path d="M1506 168 c-33 -47 -10 -138 35 -138 32 0 59 36 59 78 0 47 -24 82
-55 82 -13 0 -31 -10 -39 -22z m63 -12 c9 -11 5 -18 -21 -34 -35 -23 -44 -16
-34 23 7 28 36 34 55 11z m7 -81 c-5 -18 -13 -25 -30 -25 -38 0 -40 28 -3 50
34 21 43 15 33 -25z"/>
<path d="M1647 172 c-11 -12 -17 -36 -17 -64 0 -55 25 -84 65 -74 45 11 62 99
25 136 -25 25 -52 26 -73 2z m61 -23 c2 -13 -9 -22 -61 -47 -7 -4 1 44 10 61
8 14 48 3 51 -14z m1 -85 c-14 -17 -50 -15 -56 3 -3 7 10 22 29 33 l33 20 3
-21 c2 -11 -2 -27 -9 -35z"/>
<path d="M1786 175 c-39 -39 -27 -129 19 -141 50 -12 87 52 65 112 -18 46 -54
58 -84 29z m59 -24 c0 -8 -15 -23 -32 -34 -30 -17 -33 -17 -33 -2 0 31 20 56
43 53 12 -2 22 -9 22 -17z m15 -49 c0 -28 -24 -55 -46 -50 -29 5 -28 31 3 50
37 21 43 21 43 0z"/>
<path d="M2068 179 c-25 -14 -23 -32 2 -19 19 10 20 8 20 -50 0 -53 -2 -60
-20 -60 -11 0 -20 -4 -20 -10 0 -5 23 -10 50 -10 28 0 50 5 50 10 0 6 -9 10
-20 10 -18 0 -20 7 -20 70 0 73 -6 81 -42 59z"/>
<path d="M1920 100 c0 -5 16 -10 35 -10 19 0 35 5 35 10 0 6 -16 10 -35 10
-19 0 -35 -4 -35 -10z"/>
</g>
</svg>
