<?xml version="1.0" standalone="no"?>
<!DOCTYPE svg PUBLIC "-//W3C//DTD SVG 20010904//EN"
 "http://www.w3.org/TR/2001/REC-SVG-20010904/DTD/svg10.dtd">
<svg version="1.0" xmlns="http://www.w3.org/2000/svg"
 width="685.000000pt" height="83.000000pt" viewBox="0 0 685.000000 83.000000"
 preserveAspectRatio="xMidYMid meet">

<g transform="translate(0.000000,83.000000) scale(0.100000,-0.100000)"
fill="#000000" stroke="none">
<path d="M1290 657 c-42 -20 -43 -22 -18 -25 25 -3 27 -7 33 -68 4 -36 5 -67
2 -70 -3 -3 -14 -1 -25 5 -55 29 -131 -1 -170 -68 -34 -57 -38 -150 -9 -194
41 -63 130 -85 176 -43 23 21 31 20 31 -4 0 -25 -2 -25 57 1 45 20 46 22 23
28 l-25 7 -3 227 c-2 172 -5 227 -15 226 -6 0 -32 -10 -57 -22z m-23 -182 c29
-20 43 -73 43 -162 0 -63 -3 -74 -22 -87 -43 -30 -97 -16 -122 32 -35 71 -25
176 22 212 30 24 50 25 79 5z"/>
<path d="M4340 665 c-18 -22 -1 -50 31 -50 20 0 24 5 24 30 0 23 -5 31 -21 33
-11 2 -27 -4 -34 -13z"/>
<path d="M5421 444 c-81 -194 -99 -229 -125 -245 l-31 -19 80 0 c77 1 79 1 53
16 -34 18 -35 35 -7 103 l22 52 90 -3 90 -3 23 -61 c23 -63 22 -73 -11 -92
-16 -9 -1 -11 75 -12 l95 0 -31 19 c-26 16 -43 50 -123 245 -52 124 -96 226
-100 226 -3 0 -48 -102 -100 -226z m123 17 c20 -45 36 -85 36 -87 0 -2 -36 -4
-80 -4 l-79 0 34 81 c38 89 45 102 50 97 2 -2 20 -41 39 -87z"/>
<path d="M6446 660 c-124 -37 -196 -193 -154 -334 17 -55 91 -131 143 -145 90
-25 163 -7 223 55 23 24 42 50 42 57 -1 6 -13 -2 -28 -19 -63 -74 -139 -92
-218 -53 -64 30 -87 74 -92 175 -7 138 34 219 124 243 73 20 139 -12 179 -87
l26 -47 -5 55 c-3 30 -6 68 -6 84 0 28 -1 28 -19 12 -18 -16 -23 -16 -65 -2
-51 17 -104 19 -150 6z"/>
<path d="M116 646 c40 -18 44 -39 44 -226 0 -187 -4 -208 -44 -226 -29 -12
-23 -13 74 -13 76 1 97 3 76 9 -16 5 -33 15 -37 22 -5 7 -9 52 -9 100 l0 87
49 -6 c99 -11 171 40 171 123 0 25 -7 58 -15 74 -27 52 -65 64 -210 67 -118 3
-127 2 -99 -11z m206 -30 c28 -21 50 -83 42 -122 -7 -40 -54 -84 -89 -84 -53
0 -55 5 -55 116 l0 104 43 0 c23 0 50 -7 59 -14z"/>
<path d="M3617 653 c-10 -17 -36 -113 -30 -113 6 0 67 68 91 102 12 16 10 18
-22 18 -19 0 -37 -3 -39 -7z"/>
<path d="M5814 650 c16 -5 33 -15 37 -22 5 -7 9 -101 9 -208 0 -107 -4 -201
-9 -208 -4 -7 -21 -17 -37 -22 -20 -6 24 -9 136 -7 136 2 171 5 197 20 83 45
85 173 3 207 l-29 12 34 33 c40 37 46 84 20 135 -28 54 -63 64 -235 67 -106 2
-146 0 -126 -7z m240 -24 c67 -28 87 -101 42 -153 -21 -24 -32 -28 -95 -31
l-71 -4 0 95 c0 67 4 97 13 100 24 10 78 7 111 -7z m27 -232 c35 -18 51 -46
51 -91 0 -66 -75 -111 -161 -97 l-41 7 0 97 c0 69 4 100 13 104 19 9 107 -4
138 -20z"/>
<path d="M2168 567 c-9 -20 -31 -46 -48 -59 -31 -23 -31 -23 -8 -28 23 -6 23
-9 26 -140 2 -123 4 -137 23 -152 12 -10 29 -18 39 -18 21 0 70 37 70 53 0 8
-4 7 -12 -1 -18 -18 -46 -14 -58 8 -6 12 -9 66 -8 132 l3 113 38 3 c49 4 48
22 -2 22 l-40 0 -3 52 -3 51 -17 -36z"/>
<path d="M523 492 c-53 -22 -63 -32 -31 -32 34 0 38 -14 38 -133 0 -107 -3
-117 -35 -135 -16 -9 -3 -11 65 -11 59 0 78 3 63 9 -12 5 -26 18 -32 29 -17
31 -14 177 4 211 15 30 48 40 60 20 10 -16 42 -12 49 6 9 23 -12 54 -36 54
-12 0 -37 -14 -55 -32 l-33 -32 0 32 c0 37 -1 37 -57 14z"/>
<path d="M810 488 c-55 -38 -74 -71 -77 -141 -3 -51 0 -69 19 -101 82 -139
278 -69 278 99 0 126 -125 207 -220 143z m110 -26 c68 -69 65 -235 -5 -262
-98 -37 -172 184 -90 266 32 32 60 30 95 -4z"/>
<path d="M1870 488 c-52 -36 -73 -71 -78 -131 -11 -133 99 -229 192 -168 34
23 66 69 66 96 -1 17 -3 16 -18 -7 -9 -16 -31 -35 -49 -43 -70 -33 -135 32
-136 137 -1 55 24 97 66 112 32 12 67 -14 67 -50 0 -29 36 -42 57 -21 35 35
-28 97 -98 97 -21 0 -50 -9 -69 -22z"/>
<path d="M2393 496 c-43 -20 -82 -82 -89 -142 -10 -92 63 -184 145 -184 150 0
213 221 90 313 -34 25 -105 31 -146 13z m82 -16 c38 -15 65 -80 65 -163 0 -63
-2 -71 -30 -98 -33 -34 -58 -33 -97 4 -62 56 -59 244 4 260 29 8 31 7 58 -3z"/>
<path d="M2935 496 c-70 -31 -112 -113 -101 -194 17 -128 130 -175 204 -84 10
13 12 -1 12 -75 0 -91 0 -91 -27 -101 -23 -9 -12 -11 57 -11 75 -1 82 1 60 12
l-25 13 -3 227 c-1 125 -6 227 -10 227 -4 0 -13 -5 -20 -12 -9 -9 -18 -9 -37
0 -34 15 -72 15 -110 -2z m75 -16 c5 0 16 -7 24 -16 12 -12 16 -38 16 -114 0
-91 -2 -100 -22 -114 -33 -24 -64 -19 -100 13 -28 25 -32 35 -35 92 -3 52 0
70 17 97 21 34 55 54 78 46 8 -2 17 -4 22 -4z"/>
<path d="M3580 488 c-43 -20 -44 -21 -20 -27 25 -7 25 -7 25 -131 0 -123 0
-125 -25 -137 -22 -11 -15 -13 60 -13 75 0 82 2 60 13 -25 12 -25 14 -28 165
-2 112 -6 152 -15 151 -6 0 -32 -10 -57 -21z"/>
<path d="M3760 488 c-43 -20 -44 -21 -20 -27 25 -7 25 -7 25 -131 0 -123 0
-125 -25 -137 -22 -11 -15 -13 60 -13 75 0 82 2 60 13 -24 12 -25 16 -28 125
l-3 112 33 20 c70 42 99 15 106 -99 6 -110 -2 -147 -36 -159 -22 -8 -10 -10
58 -11 81 0 84 1 58 15 -28 15 -28 15 -28 123 0 104 1 109 24 124 37 25 69 29
91 13 17 -12 21 -28 23 -111 5 -114 0 -138 -30 -153 -19 -9 -8 -11 57 -11 65
0 76 2 60 11 -33 18 -35 28 -35 151 0 112 -1 119 -25 142 -13 14 -36 25 -50
25 -30 0 -75 -21 -94 -44 -12 -14 -16 -12 -41 14 -41 44 -90 39 -147 -13 l-23
-20 0 31 c0 37 -8 38 -70 10z"/>
<path d="M4330 488 c-43 -20 -44 -21 -20 -27 25 -7 25 -7 25 -131 0 -123 0
-125 -25 -137 -22 -11 -16 -13 55 -13 75 0 78 1 57 16 -21 14 -22 21 -22 165
0 113 -3 149 -12 148 -7 0 -33 -10 -58 -21z"/>
<path d="M4570 492 c-57 -31 -80 -74 -80 -150 0 -102 54 -172 132 -172 51 0
110 54 123 115 l7 30 -19 -30 c-29 -44 -51 -59 -88 -59 -81 0 -130 114 -91
209 29 68 98 71 120 5 9 -28 16 -35 36 -35 19 0 26 6 28 25 7 62 -98 100 -168
62z"/>
<path d="M4894 496 c-88 -39 -121 -175 -63 -261 43 -63 117 -82 187 -46 81 41
110 175 56 255 -41 60 -113 81 -180 52z m79 -17 c38 -17 60 -65 64 -143 4 -80
-8 -114 -49 -134 -21 -10 -32 -10 -53 0 -75 34 -98 227 -32 273 26 18 38 19
70 4z"/>
<path d="M1430 489 c13 -6 28 -15 32 -22 4 -7 8 -65 8 -130 0 -112 1 -119 25
-142 34 -35 76 -33 118 5 19 17 37 30 41 30 3 0 6 -14 6 -31 0 -27 3 -30 23
-23 12 3 36 14 52 22 26 14 28 16 10 20 -11 2 -23 9 -27 16 -4 6 -8 68 -8 139
l0 127 -52 0 c-45 -1 -50 -2 -33 -12 32 -18 35 -28 35 -129 0 -86 -2 -98 -22
-117 -32 -29 -69 -36 -93 -18 -18 13 -20 28 -23 145 l-4 131 -56 -1 c-48 0
-53 -2 -32 -10z"/>
<path d="M3180 489 c13 -6 28 -15 32 -22 4 -7 8 -65 8 -130 0 -112 1 -119 25
-142 34 -35 76 -33 118 5 19 17 37 30 41 30 3 0 6 -14 6 -31 0 -27 3 -30 23
-23 12 3 36 14 52 22 26 14 28 16 10 20 -11 2 -23 9 -27 16 -4 6 -8 68 -8 139
l0 127 -52 0 c-45 -1 -50 -2 -33 -12 32 -18 35 -28 35 -129 0 -86 -2 -98 -22
-117 -32 -29 -69 -36 -93 -18 -18 13 -20 28 -23 145 l-4 131 -56 -1 c-48 0
-53 -2 -32 -10z"/>
</g>
</svg>
