<svg id="Ebene_1" data-name="Ebene 1" xmlns="http://www.w3.org/2000/svg" xmlns:xlink="http://www.w3.org/1999/xlink" viewBox="0 0 19.42 746.72"><defs><style>.cls-1,.cls-2{stroke:#010101;stroke-miterlimit:10;}.cls-1{fill:url(#Unbenannter_Verlauf_2);}.cls-2{fill:none;}</style><linearGradient id="Unbenannter_Verlauf_2" x1="1252.77" y1="-863.7" x2="1252.77" y2="-845.28" gradientTransform="matrix(0, 1, 1, 0, 864.2, -879.41)" gradientUnits="userSpaceOnUse"><stop offset="0" stop-color="#a3a1a1"/><stop offset="1" stop-color="#626261"/></linearGradient></defs><polygon class="cls-1" points="0.5 746.22 0.5 0.5 18.92 0.5 18.92 746.22 0.5 746.22"/><line class="cls-2" x1="16.84" y1="672.86" x2="1.39" y2="672.86"/><line class="cls-2" x1="16.84" y1="711.21" x2="1.39" y2="711.21"/><line class="cls-2" x1="16.84" y1="362.86" x2="1.39" y2="362.86"/><line class="cls-2" x1="10.34" y1="382.04" x2="1.39" y2="382.04"/><line class="cls-2" x1="16.84" y1="401.21" x2="1.39" y2="401.21"/><line class="cls-2" x1="10.34" y1="420.81" x2="1.39" y2="420.81"/><line class="cls-2" x1="16.84" y1="440.2" x2="1.39" y2="440.2"/><line class="cls-2" x1="10.34" y1="459.59" x2="1.39" y2="459.59"/><line class="cls-2" x1="16.84" y1="479.3" x2="1.39" y2="479.3"/><line class="cls-2" x1="10.34" y1="498.58" x2="1.39" y2="498.58"/><line class="cls-2" x1="16.84" y1="518.07" x2="1.39" y2="518.07"/><line class="cls-2" x1="9.86" y1="537.46" x2="1.39" y2="537.46"/><line class="cls-2" x1="16.84" y1="556.64" x2="1.39" y2="556.64"/><line class="cls-2" x1="10.34" y1="576.13" x2="1.39" y2="576.13"/><line class="cls-2" x1="16.84" y1="595.95" x2="1.82" y2="595.95"/><line class="cls-2" x1="9.86" y1="729.12" x2="1.39" y2="729.12"/><line class="cls-2" x1="9.86" y1="691.12" x2="1.39" y2="691.12"/><line class="cls-2" x1="9.86" y1="615.12" x2="1.39" y2="615.12"/><line class="cls-2" x1="16.84" y1="634.4" x2="1.39" y2="634.4"/><line class="cls-2" x1="10.34" y1="653.9" x2="1.39" y2="653.9"/><line class="cls-2" x1="16.84" y1="52.86" x2="1.39" y2="52.86"/><line class="cls-2" x1="10.34" y1="72.04" x2="1.39" y2="72.04"/><line class="cls-2" x1="16.84" y1="91.21" x2="1.39" y2="91.21"/><line class="cls-2" x1="10.34" y1="110.81" x2="1.39" y2="110.81"/><line class="cls-2" x1="16.84" y1="130.2" x2="1.39" y2="130.2"/><line class="cls-2" x1="10.34" y1="149.59" x2="1.39" y2="149.59"/><line class="cls-2" x1="16.84" y1="169.3" x2="1.39" y2="169.3"/><line class="cls-2" x1="10.34" y1="188.58" x2="1.39" y2="188.58"/><line class="cls-2" x1="16.84" y1="208.07" x2="1.39" y2="208.07"/><line class="cls-2" x1="9.86" y1="227.46" x2="1.39" y2="227.46"/><line class="cls-2" x1="16.84" y1="246.64" x2="1.39" y2="246.64"/><line class="cls-2" x1="10.34" y1="266.13" x2="1.39" y2="266.13"/><line class="cls-2" x1="16.84" y1="285.95" x2="1.82" y2="285.95"/><line class="cls-2" x1="9.86" y1="305.12" x2="1.39" y2="305.12"/><line class="cls-2" x1="16.84" y1="324.4" x2="1.39" y2="324.4"/><line class="cls-2" x1="10.34" y1="343.9" x2="1.39" y2="343.9"/><line class="cls-2" x1="16.84" y1="14.4" x2="1.39" y2="14.4"/><line class="cls-2" x1="10.34" y1="33.9" x2="1.39" y2="33.9"/></svg>