<svg id="Ebene_1" data-name="Ebene 1" xmlns="http://www.w3.org/2000/svg" viewBox="0 0 120 120"><defs><style>.cls-1{fill:#dadada;}</style></defs><path class="cls-1" d="M93.44,19.22H37.62A15.35,15.35,0,0,0,22.27,34.57V85.14c0,.08,0,.15,0,.22,0,3.88,0,7.77,0,11.65a3.32,3.32,0,0,0,3.35,3.44c3.84.06,7.69,0,11.54,0,.15,0,.29,0,.44,0H93.44a15.35,15.35,0,0,0,15.35-15.35V34.57A15.35,15.35,0,0,0,93.44,19.22ZM42.57,59.81V74.66c0,3.07,0,6.14,0,9.21a3.07,3.07,0,0,1-2.1,2.94,3.26,3.26,0,0,1-3.5-.64A3.83,3.83,0,0,1,35.79,83V45.4c0-2.94,0-5.88,0-8.82a3.4,3.4,0,0,1,5.08-3.16,3.26,3.26,0,0,1,1.68,3c0,3.6,0,7.19,0,10.79,0,4.19,0,8.38,0,12.57ZM52.93,86.89a4.59,4.59,0,0,1-4.7-4.49,4.6,4.6,0,1,1,9.2,0A4.52,4.52,0,0,1,52.93,86.89ZM57.43,68a5.28,5.28,0,0,1-1.62,4.35,4.4,4.4,0,0,1-4.6.85,4.06,4.06,0,0,1-2.87-3.65c-.12-1.2-.11-2.41-.11-3.61q0-9.91,0-19.83v-8.4a5.51,5.51,0,0,1,1-3.78A4.42,4.42,0,0,1,54,32.39a4.19,4.19,0,0,1,3.23,3.54,9.59,9.59,0,0,1,.18,1.85C57.43,52.39,57.43,53.42,57.43,68Zm8.77,19a4.73,4.73,0,0,1-4.48-4.64,4.65,4.65,0,1,1,9.29.25A4.61,4.61,0,0,1,66.2,87.05ZM71,58.48v9.68c0,3.33-1.75,5.36-4.61,5.36s-4.67-1.91-4.67-5.26V45.63h0c0-7.73,0-.94,0-8.66a4.45,4.45,0,0,1,2.61-4.27,4.5,4.5,0,0,1,5,.62A4.88,4.88,0,0,1,71,37.41C71,49.27,71,46.62,71,58.48ZM85.5,82.27a5.92,5.92,0,0,1-1.11,3.17c-1.16,1.63-3,1.87-4.82,1.37a4.53,4.53,0,0,1-3.17-4.07c0-.27,0-.54,0-.81V37.31c0-3.17,2-5.25,4.92-5.08a4.48,4.48,0,0,1,4.23,4.63V69h0C85.55,79.59,85.58,71.66,85.5,82.27Zm8,4.78a4.51,4.51,0,0,1-4.6-4.55,4.58,4.58,0,1,1,9.16,0A4.49,4.49,0,0,1,93.46,87.05ZM98,44c0,.64,0,1.08,0,1.36h0v.81q0,11.06,0,22.1c0,2.73-1.08,4.33-3.28,5a4.48,4.48,0,0,1-5.63-3.25,8.84,8.84,0,0,1-.22-2c0-14.56,0-15.84,0-30.4,0-2.17.56-4,2.72-5a4.42,4.42,0,0,1,6.34,3.68C98.08,38.89,98,41.47,98,44Z"/></svg>