<svg id="Ebene_1" data-name="Ebene 1" xmlns="http://www.w3.org/2000/svg" viewBox="0 0 120 120"><defs><style>.cls-1{fill:#dadada;}</style></defs><path class="cls-1" d="M98.71,82.9l-15.47-13a7.58,7.58,0,0,0-8.69-.73l-3.28-2.74a25.29,25.29,0,1,0-3.39,3.75L71.3,73a7.58,7.58,0,0,0,2.2,8.51L89,94.51A7.58,7.58,0,1,0,98.71,82.9Zm-68-31.39A20.19,20.19,0,1,1,66.14,64.79a2.72,2.72,0,0,0-.39.37,2.26,2.26,0,0,0-.13.2A20.18,20.18,0,0,1,30.75,51.51Zm65,38.84h0a2.51,2.51,0,0,1-3.55.3l-15.47-13a2.52,2.52,0,0,1,1.38-4.47h.23a2.59,2.59,0,0,1,1.62.58l15.47,13a2.52,2.52,0,0,1,.32,3.56Z"/></svg>