<svg id="Ebene_1" data-name="Ebene 1" xmlns="http://www.w3.org/2000/svg" viewBox="0 0 120 120"><defs><style>.cls-1{fill:#dadada;}</style></defs><path class="cls-1" d="M86.37,48.49H43V34.94A16.25,16.25,0,0,1,59.28,18.69h5.41A16.25,16.25,0,0,1,81,34.94a2.71,2.71,0,0,0,5.42,0A21.68,21.68,0,0,0,64.69,13.27H59.28A21.68,21.68,0,0,0,37.6,34.94V48.49a8.13,8.13,0,0,0-8.13,8.13v29.8a8.12,8.12,0,0,0,8.13,8.12H86.37a8.12,8.12,0,0,0,8.13-8.12V56.62A8.13,8.13,0,0,0,86.37,48.49Zm-29.8,19a5.42,5.42,0,1,1,10.83,0A5.31,5.31,0,0,1,64.69,72v9H59.28V72A5.33,5.33,0,0,1,56.57,67.45Z"/></svg>