<svg id="Ebene_1" data-name="Ebene 1" xmlns="http://www.w3.org/2000/svg" viewBox="0 0 120 120"><defs><style>.cls-1{fill:#dadada;}</style></defs><path class="cls-1" d="M96.92,49.08a34.74,34.74,0,0,0-2.16-5.29A8.12,8.12,0,0,0,94.08,33l-3.69-3.82a8.12,8.12,0,0,0-10.83-.68,34.78,34.78,0,0,0-5.29-2.17,8.12,8.12,0,0,0-8.12-7.15H60.73a8.13,8.13,0,0,0-8.13,7.15,34.67,34.67,0,0,0-5.15,2.17,8.12,8.12,0,0,0-10.83.68L32.8,32.82a8.12,8.12,0,0,0-.68,10.84A34.67,34.67,0,0,0,30,48.94a8.13,8.13,0,0,0-7.15,8.13v5.42A8.12,8.12,0,0,0,30,70.61a33.8,33.8,0,0,0,2.17,5.15A8.12,8.12,0,0,0,32.8,86.6l3.68,3.82a8.14,8.14,0,0,0,10.84.68,34.21,34.21,0,0,0,5.28,2.16,8.13,8.13,0,0,0,8.13,7.16h5.42a8.13,8.13,0,0,0,8-7.16,34.62,34.62,0,0,0,5.28-2.16,8.14,8.14,0,0,0,10.84-.68l3.82-3.69a8.12,8.12,0,0,0,.68-10.83,34.74,34.74,0,0,0,2.16-5.29,8.11,8.11,0,0,0,7.15-8.12V57.07A8.11,8.11,0,0,0,96.92,49.08ZM63.44,78.74a19,19,0,1,1,19-19A19,19,0,0,1,63.44,78.74Z"/></svg>