<svg id="Ebene_1" data-name="Ebene 1" xmlns="http://www.w3.org/2000/svg" viewBox="0 0 120 120"><defs><style>.cls-1{fill:#dadada;}</style></defs><path class="cls-1" d="M92.56,41.36a10,10,0,0,0,0-14.15l-9.72-9.72h0a10,10,0,0,0-14.15,0L17.52,68.63a3.19,3.19,0,0,0-.91,1.85l-2.4,21.88a2.17,2.17,0,0,0,0,.36,3.13,3.13,0,0,0,3.14,3.11l.38,0,21.88-2.41a3.07,3.07,0,0,0,1.84-.9L92.54,41.38ZM41.45,73,37,68.6,61.36,44.26l4.42,4.42ZM78.59,46.51l-15-15.09L68,27,83.06,42.05Z"/><path class="cls-1" d="M104.86,89.58h-50a3.13,3.13,0,0,0,0,6.25h50a3.13,3.13,0,1,0,0-6.25Z"/></svg>