<svg id="Ebene_1" data-name="Ebene 1" xmlns="http://www.w3.org/2000/svg" viewBox="0 0 120 120"><defs><style>.cls-1{fill:#dadada;}</style></defs><path class="cls-1" d="M95.47,20.28H37.94A7.93,7.93,0,0,0,30,28.2V90.29H95.47a7.91,7.91,0,0,0,7.91-7.92V28.2A7.92,7.92,0,0,0,95.47,20.28ZM59.61,78.52a1.54,1.54,0,0,1-1.55,1.54H47.25a1.54,1.54,0,0,1-1.54-1.54V52.94a1.54,1.54,0,0,1,1.54-1.54H58.06a1.54,1.54,0,0,1,1.55,1.54Zm28.09,0a1.56,1.56,0,0,1-1.57,1.56H65.39a1.56,1.56,0,0,1-1.57-1.56V74.21a1.57,1.57,0,0,1,1.57-1.57H86.13a1.57,1.57,0,0,1,1.57,1.57Zm0-11.62a1.54,1.54,0,0,1-1.54,1.55H65.36a1.54,1.54,0,0,1-1.54-1.55V52.94a1.54,1.54,0,0,1,1.54-1.54h20.8a1.54,1.54,0,0,1,1.54,1.54Zm0-21.32a1.62,1.62,0,0,1-1.62,1.62H47.33a1.61,1.61,0,0,1-1.62-1.62V32.12a1.61,1.61,0,0,1,1.62-1.62H86.08a1.62,1.62,0,0,1,1.62,1.62Z"/></svg>