<svg id="Ebene_1" data-name="Ebene 1" xmlns="http://www.w3.org/2000/svg" viewBox="0 0 120 120"><defs><style>.cls-1{fill:#dadada;}</style></defs><rect class="cls-1" x="48.5" y="59.14" width="32.51" height="21.67"/><polygon class="cls-1" points="72.88 26.63 72.88 21.21 51.21 21.21 51.21 26.63 51.21 29.33 51.21 37.46 72.88 37.46 72.88 26.63"/><path class="cls-1" d="M101.9,38.25,85.64,22a2.7,2.7,0,0,0-1.92-.78H80.47V45H43.63V21.21H29.54a2.71,2.71,0,0,0-2.71,2.71V99.77a2.71,2.71,0,0,0,2.71,2.71H100a2.71,2.71,0,0,0,2.71-2.71V40.17A2.71,2.71,0,0,0,101.9,38.25ZM88.83,88.62H40.69V51.32H88.83Z"/></svg>