<svg id="Ebene_1" data-name="Ebene 1" xmlns="http://www.w3.org/2000/svg" viewBox="0 0 120 120"><defs><style>.cls-1{fill:#dadada;}</style></defs><path class="cls-1" d="M95.17,40.64H90.5V29a2.34,2.34,0,0,0-2.33-2.34h-42A2.33,2.33,0,0,0,43.83,29V40.64H39.16a7,7,0,0,0-7,7v28a7,7,0,0,0,7,7h4.67V94.31a2.33,2.33,0,0,0,2.33,2.33h42a2.33,2.33,0,0,0,2.33-2.33V82.64h4.67a7,7,0,0,0,7-7v-28A7,7,0,0,0,95.17,40.64ZM85.83,50H90.5v4.67H85.83Zm-4.67,0v4.67H71.83V50ZM48.49,31.3H85.83v9.34H48.49ZM85.83,92H48.49V73.31H85.83Z"/></svg>