<svg id="Ebene_1" data-name="Ebene 1" xmlns="http://www.w3.org/2000/svg" viewBox="0 0 188.94 120"><defs><style>.cls-1{fill:#dadada;}</style></defs><path class="cls-1" d="M19.07,82.6h15.1V38.33H21.7V30.66c6.7-1.23,11.33-3,15.57-5.56h9.11V82.6H59.66v10H19.07Z"/><path class="cls-1" d="M69.66,85.49c18.7-18.19,30.49-30,30.49-40.33,0-7.1-3.9-11.62-11.15-11.62-5.21,0-9.54,3.44-13.14,7.47l-6.79-6.7c6.15-6.66,12.34-10.48,21.54-10.48,12.89,0,21.33,8.19,21.33,20.7,0,12-11.11,24.34-24.55,38.37,3.56-.34,8-.68,11.32-.68h16.5V92.57H69.66Z"/><path class="cls-1" d="M122.5,84.3l5.81-7.8c4.09,4.07,9.22,7.38,16,7.38,7.38,0,12.47-3.82,12.47-10.18,0-7-4.48-11.45-19.81-11.45v-8.9c13.19,0,17.52-4.58,17.52-10.78,0-5.63-3.76-9-10-9-5.22,0-9.42,2.51-13.49,6.37l-6.31-7.55c5.72-5.09,12.21-8.53,20.31-8.53,12.89,0,21.75,6.45,21.75,17.83,0,7.53-4.45,12.62-11.74,15.5v.43c8,2.07,14,7.8,14,16.79,0,12.3-10.73,19.46-23.7,19.46C134.48,93.84,127.25,89.65,122.5,84.3Z"/></svg>