<svg id="Ebene_1" data-name="Ebene 1" xmlns="http://www.w3.org/2000/svg" viewBox="0 0 120 120"><defs><style>.cls-1{fill:#dadada;}</style></defs><path class="cls-1" d="M90.62,63.17H84.05c-2.51-3.88-6.58-6.41-11.3-8.44l-9.63-4.17C57.83,48.33,52,45.9,52,39.38c0-6,5-9.86,12.59-9.86a21.63,21.63,0,0,1,15.33,6.34l4.55-5.52A27.85,27.85,0,0,0,64.54,22C52.27,22,43.28,29.58,43.28,39.9c0,9.93,7.38,14.7,13.67,17.39l9.7,4.27c1.24.55,2.4,1.07,3.51,1.61H35.69v5.15H76.6a9.77,9.77,0,0,1,1.32,5.12c0,6.57-5.26,11-14.12,11a26.39,26.39,0,0,1-18.63-8.37L40,82A32.4,32.4,0,0,0,63.65,92c14.2,0,23-8.53,23-19.2a19.83,19.83,0,0,0-.53-4.46h4.48Z"/></svg>